<svg width="29" height="29" viewBox="0 0 29 29" fill="currentColor" xmlns="http://www.w3.org/2000/svg">
<g clip-path="url(#clip0_2207_35471)">
<path d="M13.955 25.91C12.3219 25.91 10.7826 25.5975 9.33709 24.9724C7.89936 24.3473 6.62963 23.4838 5.5279 22.3821C4.42616 21.2804 3.56275 20.0106 2.93765 18.5729C2.31255 17.1274 2 15.5881 2 13.955C2 12.3219 2.31255 10.7865 2.93765 9.34881C3.56275 7.90327 4.42226 6.62963 5.51618 5.5279C6.61791 4.42616 7.88764 3.56275 9.32537 2.93765C10.7709 2.31255 12.3102 2 13.9433 2C15.5763 2 17.1157 2.31255 18.5612 2.93765C20.0067 3.56275 21.2804 4.42616 22.3821 5.5279C23.4838 6.62963 24.3473 7.90327 24.9724 9.34881C25.5975 10.7865 25.91 12.3219 25.91 13.955C25.91 15.5881 25.5975 17.1274 24.9724 18.5729C24.3473 20.0106 23.4838 21.2804 22.3821 22.3821C21.2804 23.4838 20.0067 24.3473 18.5612 24.9724C17.1235 25.5975 15.5881 25.91 13.955 25.91ZM11.3179 21.5734H16.6039C17.4712 21.5734 18.0455 21.214 18.3268 20.4951V20.4248L17.3891 19.4871V19.6864C17.3501 19.9208 17.2524 20.0966 17.0961 20.2138C16.9398 20.331 16.725 20.3896 16.4515 20.3896H11.4702C11.1577 20.3896 10.9194 20.3154 10.7553 20.1669C10.5912 20.0106 10.5091 19.7879 10.5091 19.4988V12.6189L9.33709 11.4351V19.6746C9.33709 20.2529 9.5168 20.7139 9.87624 21.0577C10.2435 21.4015 10.724 21.5734 11.3179 21.5734ZM12.4548 19.8739H15.4787C15.7053 19.8739 15.8186 19.7606 15.8186 19.534C15.8186 19.2918 15.7053 19.1707 15.4787 19.1707H12.4548C12.2125 19.1707 12.0914 19.2918 12.0914 19.534C12.0914 19.7606 12.2125 19.8739 12.4548 19.8739ZM18.5729 16.4866V8.22363C18.5729 7.65323 18.3893 7.19613 18.022 6.85232C17.6626 6.50071 17.1899 6.3249 16.6039 6.3249H11.3179C10.4271 6.3249 9.84107 6.69214 9.55978 7.42663V7.47352L10.5209 8.4346V8.25879C10.5443 8.02438 10.6342 7.84076 10.7904 7.70793C10.9545 7.57509 11.1811 7.50868 11.4702 7.50868H16.4515C16.7562 7.50868 16.9906 7.58681 17.1547 7.74309C17.3188 7.89936 17.4009 8.11815 17.4009 8.39944V15.3146L18.5729 16.4866ZM19.3348 20.1083C19.4363 20.2099 19.5653 20.2646 19.7215 20.2724C19.8778 20.2724 20.0067 20.2177 20.1083 20.1083C20.2177 19.9989 20.2724 19.87 20.2724 19.7215C20.2724 19.5731 20.2177 19.4441 20.1083 19.3348L8.55181 7.77825C8.44242 7.66886 8.30958 7.61416 8.15331 7.61416C8.00485 7.61416 7.87592 7.66886 7.76653 7.77825C7.66495 7.88764 7.61416 8.02048 7.61416 8.17675C7.61416 8.32521 7.66495 8.45023 7.76653 8.55181L19.3348 20.1083ZM13.076 9.12612H14.8223C14.9708 9.12612 15.0958 9.07924 15.1974 8.98547C15.299 8.88389 15.3498 8.75887 15.3498 8.61041C15.3498 8.46976 15.299 8.34865 15.1974 8.24707C15.0958 8.1455 14.9708 8.09471 14.8223 8.09471H13.076C12.9275 8.09471 12.8025 8.1455 12.7009 8.24707C12.5993 8.34865 12.5485 8.46976 12.5485 8.61041C12.5485 8.75887 12.5993 8.88389 12.7009 8.98547C12.8025 9.07924 12.9275 9.12612 13.076 9.12612Z" fill="currentColor" fill-opacity="0.85"/>
</g>
<defs>
<clipPath id="clip0_2207_35471">
<rect width="23.9062" height="23.918" fill="currentColor" transform="translate(2.04199 2.08398)"/>
</clipPath>
</defs>
</svg>
