<svg width="29" height="29" viewBox="0 0 29 29" fill="currentColor" xmlns="http://www.w3.org/2000/svg">
<g clip-path="url(#clip0_2207_34453)">
<path d="M13.955 25.91C12.3219 25.91 10.7826 25.5975 9.33709 24.9724C7.89936 24.3473 6.62963 23.4838 5.5279 22.3821C4.42616 21.2804 3.56275 20.0106 2.93765 18.5729C2.31255 17.1274 2 15.5881 2 13.955C2 12.3219 2.31255 10.7865 2.93765 9.34881C3.56275 7.90327 4.42226 6.62963 5.51618 5.5279C6.61791 4.42616 7.88764 3.56275 9.32537 2.93765C10.7709 2.31255 12.3102 2 13.9433 2C15.5763 2 17.1157 2.31255 18.5612 2.93765C20.0067 3.56275 21.2804 4.42616 22.3821 5.5279C23.4838 6.62963 24.3473 7.90327 24.9724 9.34881C25.5975 10.7865 25.91 12.3219 25.91 13.955C25.91 15.5881 25.5975 17.1274 24.9724 18.5729C24.3473 20.0106 23.4838 21.2804 22.3821 22.3821C21.2804 23.4838 20.0067 24.3473 18.5612 24.9724C17.1235 25.5975 15.5881 25.91 13.955 25.91ZM17.1664 14.8926L19.8622 9.16128C20.0106 8.84092 20.0341 8.55181 19.9325 8.29396C19.8309 8.02829 19.6473 7.84467 19.3816 7.74309C19.1238 7.64151 18.8308 7.66886 18.5026 7.82513L12.7947 10.5326L17.1664 14.8926ZM7.16878 14.9747H12.7478L9.74731 11.9742L6.73512 13.4041C6.46164 13.537 6.29364 13.7284 6.23113 13.9784C6.17644 14.2285 6.22332 14.459 6.37178 14.67C6.52805 14.8731 6.79372 14.9747 7.16878 14.9747ZM14.3301 20.9522L15.7248 17.9634L12.7712 14.9981V20.5303C12.7712 20.9053 12.8728 21.1671 13.076 21.3155C13.2869 21.464 13.5174 21.507 13.7675 21.4445C14.0175 21.3819 14.205 21.2179 14.3301 20.9522ZM19.1707 19.8856C19.2801 19.995 19.4129 20.0497 19.5692 20.0497C19.7332 20.0497 19.87 19.995 19.9794 19.8856C20.0888 19.7684 20.1435 19.6317 20.1435 19.4754C20.1513 19.3191 20.0966 19.1863 19.9794 19.0769L8.8331 7.94234C8.70808 7.82513 8.56744 7.76653 8.41116 7.76653C8.2627 7.75872 8.13377 7.81732 8.02438 7.94234C7.90718 8.04392 7.84857 8.17284 7.84857 8.32912C7.84857 8.48539 7.90718 8.62213 8.02438 8.73934L19.1707 19.8856Z" fill="currentColor" fill-opacity="0.85"/>
</g>
<defs>
<clipPath id="clip0_2207_34453">
<rect width="23.9062" height="23.918" fill="currentColor" transform="translate(2.0105 2.09229)"/>
</clipPath>
</defs>
</svg>
