<svg width="29" height="29" viewBox="0 0 29 29" fill="currentColor" xmlns="http://www.w3.org/2000/svg">
<path d="M6.07808 25.91C4.71872 25.91 3.69703 25.5723 3.01303 24.897C2.33768 24.2303 2 23.2259 2 21.8839V6.02613C2 4.68408 2.33768 3.67972 3.01303 3.01303C3.69703 2.33768 4.71872 2 6.07808 2H21.8319C23.1913 2 24.2086 2.33768 24.884 3.01303C25.568 3.67972 25.91 4.68408 25.91 6.02613V21.8839C25.91 23.2259 25.568 24.2303 24.884 24.897C24.2086 25.5723 23.1913 25.91 21.8319 25.91H6.07808ZM10.9484 20.1825H19.8968C20.5115 20.1825 20.9704 20.031 21.2735 19.7279C21.5852 19.4249 21.741 18.966 21.741 18.3513V12.0783C21.741 11.4809 21.5852 11.0306 21.2735 10.7276C20.9704 10.4246 20.5115 10.273 19.8968 10.273H10.9484C10.3336 10.273 9.87043 10.4246 9.55873 10.7276C9.25569 11.0306 9.10417 11.4809 9.10417 12.0783V18.3513C9.10417 18.966 9.25569 19.4249 9.55873 19.7279C9.87043 20.031 10.3336 20.1825 10.9484 20.1825ZM8.31193 12.0004C8.31193 11.1692 8.52406 10.5414 8.94832 10.1172C9.38123 9.68427 10.0219 9.46782 10.8705 9.46782H18.7928V9.31197C18.7928 8.69722 18.6413 8.24266 18.3383 7.94828C18.0352 7.64524 17.5763 7.49372 16.9616 7.49372H8.00023C7.38549 7.49372 6.92659 7.64524 6.62355 7.94828C6.32051 8.24266 6.16899 8.69722 6.16899 9.31197V15.533C6.16899 16.1391 6.32051 16.5936 6.62355 16.8967C6.92659 17.1911 7.38549 17.3382 8.00023 17.3382H8.31193V12.0004Z" fill="currentColor" fill-opacity="0.85"/>
</svg>
