<svg width="29" height="29" viewBox="0 0 29 29" fill="currentColor" xmlns="http://www.w3.org/2000/svg">
<g clip-path="url(#clip0_2207_34235)">
<path d="M13.955 25.91C12.3219 25.91 10.7826 25.5975 9.33709 24.9724C7.89936 24.3473 6.62963 23.4838 5.5279 22.3821C4.42616 21.2804 3.56275 20.0106 2.93765 18.5729C2.31255 17.1274 2 15.5881 2 13.955C2 12.3219 2.31255 10.7865 2.93765 9.34881C3.56275 7.90327 4.42226 6.62963 5.51618 5.5279C6.61791 4.42616 7.88764 3.56275 9.32537 2.93765C10.7709 2.31255 12.3102 2 13.9433 2C15.5763 2 17.1157 2.31255 18.5612 2.93765C20.0067 3.56275 21.2804 4.42616 22.3821 5.5279C23.4838 6.62963 24.3473 7.90327 24.9724 9.34881C25.5975 10.7865 25.91 12.3219 25.91 13.955C25.91 15.5881 25.5975 17.1274 24.9724 18.5729C24.3473 20.0106 23.4838 21.2804 22.3821 22.3821C21.2804 23.4838 20.0067 24.3473 18.5612 24.9724C17.1235 25.5975 15.5881 25.91 13.955 25.91ZM19.8973 20.0849C20.0067 20.2021 20.1357 20.2607 20.2841 20.2607C20.4404 20.2607 20.5693 20.2021 20.6709 20.0849C20.7803 19.9833 20.835 19.8583 20.835 19.7098C20.835 19.5535 20.7803 19.4207 20.6709 19.3113L8.84482 7.48524C8.73543 7.37584 8.6065 7.32115 8.45804 7.32115C8.30958 7.32115 8.18066 7.37584 8.07126 7.48524C7.96187 7.59463 7.90718 7.72746 7.90718 7.88374C7.90718 8.0322 7.96187 8.15722 8.07126 8.25879L19.8973 20.0849ZM11.2593 19.6043H18.1041L9.82935 11.353C9.67308 11.6031 9.59494 11.9195 9.59494 12.3024V17.9634C9.59494 18.5182 9.73168 18.9323 10.0052 19.2058C10.2865 19.4715 10.7045 19.6043 11.2593 19.6043ZM20.8819 18.1979C20.9209 18.1041 20.9483 17.9986 20.9639 17.8814C20.9874 17.7564 20.9991 17.6275 20.9991 17.4946V12.3024C20.9991 11.7633 20.8584 11.3569 20.5771 11.0835C20.3037 10.81 19.8895 10.6732 19.3348 10.6732H13.3455L20.8819 18.1979ZM6.94609 15.4084C6.94609 15.9553 7.08283 16.3655 7.35631 16.639C7.62979 16.9125 8.04392 17.0492 8.59869 17.0492H8.87999V12.2321C8.87999 11.6148 9.00891 11.1303 9.26676 10.7787L7.22738 8.75106C7.03985 9.00891 6.94609 9.36444 6.94609 9.81763V15.4084ZM12.6189 9.93484H18.3385V9.81763C18.3385 9.26286 18.2018 8.84873 17.9283 8.57525C17.6548 8.29396 17.2407 8.15331 16.6859 8.15331H10.849L12.6189 9.93484Z" fill="currentColor" fill-opacity="0.85"/>
</g>
<defs>
<clipPath id="clip0_2207_34235">
<rect width="23.9062" height="23.918" fill="currentColor" transform="translate(2.03784 2.12061)"/>
</clipPath>
</defs>
</svg>
