<svg width="29" height="29" viewBox="0 0 29 29" fill="currentColor" xmlns="http://www.w3.org/2000/svg">
<g clip-path="url(#clip0_2207_33913)">
<path d="M13.955 25.91C12.3219 25.91 10.7826 25.5975 9.33709 24.9724C7.89936 24.3473 6.62963 23.4838 5.5279 22.3821C4.42616 21.2804 3.56275 20.0106 2.93765 18.5729C2.31255 17.1274 2 15.5881 2 13.955C2 12.3219 2.31255 10.7865 2.93765 9.34881C3.56275 7.90327 4.42226 6.62963 5.51618 5.5279C6.61791 4.42616 7.88764 3.56275 9.32537 2.93765C10.7709 2.31255 12.3102 2 13.9433 2C15.5763 2 17.1157 2.31255 18.5612 2.93765C20.0067 3.56275 21.2804 4.42616 22.3821 5.5279C23.4838 6.62963 24.3473 7.90327 24.9724 9.34881C25.5975 10.7865 25.91 12.3219 25.91 13.955C25.91 15.5881 25.5975 17.1274 24.9724 18.5729C24.3473 20.0106 23.4838 21.2804 22.3821 22.3821C21.2804 23.4838 20.0067 24.3473 18.5612 24.9724C17.1235 25.5975 15.5881 25.91 13.955 25.91ZM10.7436 16.4632H12.5134C12.5837 16.4632 12.6384 16.4827 12.6775 16.5218L15.3029 19.0183C15.4435 19.1511 15.5763 19.2488 15.7014 19.3113C15.8342 19.3738 15.9748 19.4051 16.1233 19.4051C16.303 19.4051 16.4554 19.3308 16.5804 19.1824L16.7093 18.7604L9.88796 11.9508H9.79419C9.70043 12.0367 9.61838 12.1539 9.54806 12.3024C9.48555 12.4509 9.45429 12.6189 9.45429 12.8064V15.1153C9.45429 15.5529 9.56369 15.8889 9.78247 16.1233C10.0091 16.3499 10.3294 16.4632 10.7436 16.4632ZM13.1111 11.0014L16.8148 14.7051V9.24332C16.8148 9.04017 16.7484 8.86826 16.6156 8.72762C16.4827 8.58697 16.3147 8.51665 16.1116 8.51665C15.9631 8.51665 15.8303 8.55181 15.7131 8.62213C15.6037 8.68464 15.467 8.79013 15.3029 8.93859L13.1111 11.0014ZM19.6512 20.4365C19.7606 20.5303 19.8934 20.581 20.0497 20.5889C20.206 20.5889 20.3349 20.5381 20.4365 20.4365C20.5459 20.3193 20.6006 20.1864 20.6006 20.038C20.6006 19.8895 20.5459 19.7606 20.4365 19.6512L8.27051 7.47352C8.16112 7.36412 8.02829 7.30943 7.87201 7.30943C7.71574 7.30943 7.58291 7.36412 7.47352 7.47352C7.37194 7.58291 7.32115 7.71574 7.32115 7.87201C7.32115 8.02048 7.37194 8.1494 7.47352 8.25879L19.6512 20.4365Z" fill="currentColor" fill-opacity="0.85"/>
</g>
<defs>
<clipPath id="clip0_2207_33913">
<rect width="23.9062" height="23.918" fill="currentColor" transform="translate(2.05884 2.13037)"/>
</clipPath>
</defs>
</svg>
