<svg width="29" height="29" viewBox="0 0 29 29" fill="currentColor" xmlns="http://www.w3.org/2000/svg">
<path d="M6.07808 25.91C4.71872 25.91 3.69703 25.5723 3.01303 24.897C2.33768 24.2303 2 23.2259 2 21.8839V6.02613C2 4.68408 2.33768 3.67972 3.01303 3.01303C3.69703 2.33768 4.71872 2 6.07808 2H21.8319C23.1913 2 24.2086 2.33768 24.884 3.01303C25.568 3.67972 25.91 4.68408 25.91 6.02613V21.8839C25.91 23.2259 25.568 24.2303 24.884 24.897C24.2086 25.5723 23.1913 25.91 21.8319 25.91H6.07808ZM10.6107 21.5852H17.3253C17.6196 21.5852 17.8751 21.5246 18.0915 21.4033C18.3166 21.2735 18.4725 21.1046 18.5591 20.8968L18.598 20.7669L16.6499 18.8318L16.6109 19.2214C16.5677 19.4552 16.4161 19.5721 16.1564 19.5721C15.8447 19.5721 15.6932 19.4249 15.7018 19.1305L15.7408 17.9227L14.429 16.6109V19.1305C14.429 19.4249 14.2645 19.5721 13.9355 19.5721C13.6238 19.5721 13.468 19.4249 13.468 19.1305V15.6369L12.0004 14.1823L12.1822 19.1305C12.1822 19.2604 12.1432 19.3686 12.0653 19.4552C11.9874 19.5331 11.8748 19.5721 11.7276 19.5721C11.4159 19.5721 11.2601 19.4249 11.2601 19.1305L11.0393 13.2082L8.77948 10.9484L9.18209 20.2215C9.19941 20.6544 9.32928 20.9921 9.57172 21.2345C9.82281 21.4683 10.1691 21.5852 10.6107 21.5852ZM19.7799 20.5462C19.9011 20.6674 20.0396 20.728 20.1955 20.728C20.3513 20.7193 20.4855 20.6544 20.5981 20.5332C20.7193 20.4206 20.7799 20.2864 20.7799 20.1306C20.7799 19.966 20.7193 19.8232 20.5981 19.702L8.36388 7.46774C8.25132 7.34652 8.11279 7.28591 7.94828 7.28591C7.78377 7.28591 7.64524 7.34652 7.53268 7.46774C7.41146 7.5803 7.35085 7.71883 7.35085 7.88334C7.35951 8.03919 7.42012 8.17772 7.53268 8.29894L19.7799 20.5462ZM18.9097 16.585L19.1955 9.94835H20.2215C20.3773 9.94835 20.5072 9.8964 20.6111 9.7925C20.7237 9.67995 20.7843 9.55007 20.7929 9.40288C20.8016 9.24703 20.7453 9.11715 20.6241 9.01325C20.5115 8.90069 20.3773 8.84442 20.2215 8.84442H17.1175V7.79243C17.1175 7.25561 16.9486 6.83135 16.6109 6.51965C16.2819 6.19929 15.8317 6.03911 15.2602 6.03911H12.6368C12.074 6.03911 11.6237 6.19929 11.2861 6.51965C10.9571 6.83135 10.7925 7.25561 10.7925 7.79243C10.7925 7.86169 10.7925 7.93096 10.7925 8.00023C10.7925 8.06084 10.7925 8.1301 10.7925 8.20803H10.5328L13.7407 11.4159V11.1692C13.7927 11.1172 13.8576 11.0913 13.9355 11.0913C14.2645 11.0913 14.429 11.2428 14.429 11.5458V12.1043L15.8707 13.5459L15.9486 11.5458C15.9486 11.2428 16.1088 11.0913 16.4291 11.0913C16.7408 11.0913 16.8967 11.2428 16.8967 11.5458L16.7798 14.442L18.9097 16.585ZM12.1043 8.84442V7.85737C12.1043 7.69286 12.1606 7.55865 12.2731 7.45475C12.3857 7.35085 12.5285 7.2989 12.7017 7.2989H15.1823C15.3555 7.2989 15.4983 7.35085 15.6109 7.45475C15.7235 7.55865 15.7797 7.69286 15.7797 7.85737V8.84442H12.1043Z" fill="currentColor" fill-opacity="0.85"/>
</svg>
