<svg width="29" height="29" viewBox="0 0 29 29" fill="currentColor" xmlns="http://www.w3.org/2000/svg">
<path d="M13.955 25.91C12.3219 25.91 10.7826 25.5975 9.33709 24.9724C7.89936 24.3473 6.62963 23.4838 5.5279 22.3821C4.42616 21.2804 3.56275 20.0106 2.93765 18.5729C2.31255 17.1274 2 15.5881 2 13.955C2 12.3219 2.31255 10.7865 2.93765 9.34881C3.56275 7.90327 4.42226 6.62963 5.51618 5.5279C6.61791 4.42616 7.88764 3.56275 9.32537 2.93765C10.7709 2.31255 12.3102 2 13.9433 2C15.5763 2 17.1157 2.31255 18.5612 2.93765C20.0067 3.56275 21.2804 4.42616 22.3821 5.5279C23.4838 6.62963 24.3473 7.90327 24.9724 9.34881C25.5975 10.7865 25.91 12.3219 25.91 13.955C25.91 15.5881 25.5975 17.1274 24.9724 18.5729C24.3473 20.0106 23.4838 21.2804 22.3821 22.3821C21.2804 23.4838 20.0067 24.3473 18.5612 24.9724C17.1235 25.5975 15.5881 25.91 13.955 25.91ZM10.4623 8.36428L18.7604 16.6625C18.9089 16.5531 19.03 16.4241 19.1238 16.2757C19.2254 16.1194 19.2761 15.9319 19.2761 15.7131V9.75903C19.2761 9.35272 19.0495 9.14956 18.5964 9.14956C18.4166 9.14956 18.1822 9.19253 17.8931 9.27849C17.6118 9.36444 17.2211 9.40741 16.7211 9.40741C16.0413 9.40741 15.4123 9.31755 14.834 9.13784C14.2636 8.95812 13.6815 8.77841 13.0877 8.59869C12.5016 8.41898 11.8453 8.32912 11.1186 8.32912C10.9936 8.32912 10.8764 8.33302 10.767 8.34084C10.6576 8.34084 10.556 8.34865 10.4623 8.36428ZM14.7754 16.85L8.62213 10.6967V19.8973C8.62213 20.0458 8.68074 20.1786 8.79794 20.2958C8.91515 20.4052 9.04798 20.4599 9.19644 20.4599C9.35272 20.4599 9.48164 20.4052 9.58322 20.2958C9.6848 20.1864 9.73559 20.0536 9.73559 19.8973V16.3343C9.85279 16.2874 10.0286 16.2366 10.263 16.1819C10.5052 16.1272 10.8139 16.0999 11.1889 16.0999C11.65 16.0999 12.0797 16.1428 12.4782 16.2288C12.8767 16.3069 13.2635 16.4046 13.6385 16.5218C14.0136 16.639 14.3926 16.7484 14.7754 16.85ZM19.6395 20.4365C19.7489 20.5303 19.8817 20.581 20.038 20.5889C20.1943 20.5889 20.3232 20.5381 20.4248 20.4365C20.5342 20.3193 20.5889 20.1864 20.5889 20.038C20.5889 19.8895 20.5342 19.7606 20.4248 19.6512L8.25879 7.47352C8.1494 7.36412 8.01657 7.30943 7.86029 7.30943C7.70402 7.30943 7.57119 7.36412 7.46179 7.47352C7.36022 7.58291 7.30943 7.71574 7.30943 7.87201C7.30943 8.02048 7.36022 8.1494 7.46179 8.25879L19.6395 20.4365Z" fill="currentColor" fill-opacity="0.85"/>
</svg>
